<?xml version="1.0" standalone="no"?>
<!DOCTYPE svg PUBLIC "-//W3C//DTD SVG 20010904//EN"
 "http://www.w3.org/TR/2001/REC-SVG-20010904/DTD/svg10.dtd">
<svg version="1.0" xmlns="http://www.w3.org/2000/svg"
 width="1024.000000pt" height="1024.000000pt" viewBox="0 0 1024.000000 1024.000000"
 preserveAspectRatio="xMidYMid meet">

<g transform="translate(0.000000,1024.000000) scale(0.100000,-0.100000)"
fill="#000000" stroke="none">
<path d="M7765 6844 c-279 -50 -496 -198 -608 -413 -86 -165 -106 -385 -51
-572 26 -89 92 -204 157 -275 147 -160 285 -232 716 -374 348 -115 437 -156
515 -241 128 -138 112 -324 -40 -469 -109 -105 -244 -151 -441 -151 -214 0
-341 50 -479 186 -103 101 -150 190 -169 320 -7 51 -18 91 -26 96 -20 12 -306
11 -330 -1 -16 -9 -19 -22 -19 -86 0 -207 85 -406 242 -570 197 -205 436 -306
758 -321 143 -6 305 16 445 62 330 107 562 357 620 670 73 387 -179 695 -744
907 -58 22 -178 64 -266 95 -298 102 -431 186 -492 311 -24 49 -28 69 -28 142
0 73 4 93 28 142 31 64 104 135 170 167 86 42 165 56 302 55 119 -1 137 -4
212 -32 178 -66 281 -173 313 -327 7 -33 18 -65 24 -72 9 -11 176 -17 369 -13
26 0 27 2 27 51 0 112 -59 261 -152 384 -132 173 -331 284 -592 330 -111 19
-351 19 -461 -1z m431 -89 c166 -27 291 -76 403 -158 118 -85 214 -216 252
-339 30 -99 35 -93 -93 -91 l-113 2 -7 33 c-34 166 -189 318 -393 385 -72 24
-95 27 -230 27 -131 1 -160 -2 -225 -22 -161 -51 -256 -125 -317 -249 -32 -65
-37 -86 -41 -161 -8 -165 60 -298 202 -394 79 -55 148 -84 376 -163 595 -207
853 -380 939 -633 40 -117 27 -278 -35 -424 -174 -414 -731 -614 -1239 -447
-324 108 -575 401 -596 698 l-3 43 99 -1 c68 0 99 -4 97 -11 -5 -20 29 -132
59 -194 40 -85 118 -187 181 -237 63 -50 189 -112 273 -134 156 -42 413 -26
556 34 274 115 400 383 290 616 -67 145 -182 217 -516 325 -104 34 -235 77
-290 97 -371 132 -559 292 -637 543 -29 95 -31 260 -4 360 73 268 327 466 646
503 87 10 283 6 366 -8z"/>
<path d="M7779 5483 c-13 -16 -12 -17 4 -4 9 7 17 15 17 17 0 8 -8 3 -21 -13z"/>
<path d="M8809 4793 c-13 -16 -12 -17 4 -4 16 13 21 21 13 21 -2 0 -10 -8 -17
-17z"/>
<path d="M1297 6832 c-16 -17 -17 -100 -17 -993 0 -819 2 -988 15 -1059 40
-230 153 -428 318 -558 252 -199 608 -290 928 -238 360 60 633 243 766 517
105 213 103 190 103 1346 0 870 -2 973 -16 987 -24 24 -365 24 -385 -1 -12
-13 -15 -189 -19 -1017 l-5 -1001 -31 -77 c-76 -186 -200 -297 -403 -359 -97
-29 -274 -32 -371 -6 -261 71 -422 257 -437 507 -2 47 -5 503 -6 1013 -2 907
-2 929 -21 943 -16 11 -62 14 -211 14 -173 0 -194 -2 -208 -18z m343 -1034 c1
-991 1 -999 43 -1116 48 -137 174 -266 331 -342 126 -61 189 -74 346 -73 146
0 234 20 357 80 114 56 235 177 292 293 71 147 71 146 71 1193 l0 917 115 0
115 0 0 -707 c0 -390 3 -762 6 -828 7 -143 -10 -415 -31 -504 -37 -153 -148
-332 -264 -426 -214 -172 -481 -246 -781 -216 -139 14 -242 41 -357 96 -220
104 -371 259 -460 472 -47 115 -46 94 -52 1131 l-6 982 138 0 137 0 0 -952z"/>
<path d="M1469 5923 c-13 -16 -12 -17 4 -4 9 7 17 15 17 17 0 8 -8 3 -21 -13z"/>
<path d="M3189 5823 c-13 -16 -12 -17 4 -4 9 7 17 15 17 17 0 8 -8 3 -21 -13z"/>
<path d="M1454 5708 l-19 -23 23 19 c21 18 27 26 19 26 -2 0 -12 -10 -23 -22z"/>
<path d="M3259 5613 c-13 -16 -12 -17 4 -4 9 7 17 15 17 17 0 8 -8 3 -21 -13z"/>
<path d="M1519 5583 c-13 -16 -12 -17 4 -4 16 13 21 21 13 21 -2 0 -10 -8 -17
-17z"/>
<path d="M3139 5583 c-13 -16 -12 -17 4 -4 9 7 17 15 17 17 0 8 -8 3 -21 -13z"/>
<path d="M3164 5578 l-19 -23 23 19 c21 18 27 26 19 26 -2 0 -12 -10 -23 -22z"/>
<path d="M3114 5528 l-19 -23 23 19 c21 18 27 26 19 26 -2 0 -12 -10 -23 -22z"/>
<path d="M3169 5473 c-13 -16 -12 -17 4 -4 16 13 21 21 13 21 -2 0 -10 -8 -17
-17z"/>
<path d="M3269 5393 c-13 -16 -12 -17 4 -4 16 13 21 21 13 21 -2 0 -10 -8 -17
-17z"/>
<path d="M3269 4883 c-13 -16 -12 -17 4 -4 16 13 21 21 13 21 -2 0 -10 -8 -17
-17z"/>
<path d="M2569 4173 c-13 -16 -12 -17 4 -4 9 7 17 15 17 17 0 8 -8 3 -21 -13z"/>
<path d="M3747 6832 c-16 -17 -17 -127 -17 -1376 0 -916 3 -1364 10 -1377 10
-18 23 -19 195 -19 179 0 184 1 199 22 14 20 16 130 16 982 l0 960 43 -69 c24
-39 89 -135 143 -215 132 -192 458 -662 572 -825 218 -312 404 -579 490 -704
51 -74 98 -139 105 -143 21 -13 321 -10 335 4 17 17 17 2749 0 2766 -8 8 -60
12 -168 12 -151 0 -157 -1 -178 -23 l-22 -23 0 -939 c0 -805 -2 -937 -14 -925
-8 8 -42 56 -77 105 -34 50 -97 140 -139 200 -43 61 -95 135 -116 166 -317
455 -979 1386 -1007 1417 -20 21 -27 22 -187 22 -149 0 -169 -2 -183 -18z
m324 -105 c80 -110 259 -360 306 -428 33 -46 134 -187 225 -314 90 -126 249
-351 353 -500 103 -148 250 -358 325 -465 118 -168 180 -257 297 -430 13 -19
25 -36 27 -37 1 -2 -3 25 -11 60 -35 170 -39 322 -35 1415 l2 722 100 0 100 0
0 -1300 0 -1301 -101 3 -102 3 -226 325 c-124 179 -305 438 -401 575 -553 791
-655 938 -773 1117 -72 109 -131 197 -132 195 -1 -1 2 -36 7 -77 5 -41 10
-540 11 -1108 l2 -1032 -117 0 -118 0 0 1300 0 1300 123 0 c114 -1 123 -2 138
-23z"/>
<path d="M3899 6173 c-13 -16 -12 -17 4 -4 9 7 17 15 17 17 0 8 -8 3 -21 -13z"/>
<path d="M3944 6018 l-19 -23 23 19 c21 18 27 26 19 26 -2 0 -12 -10 -23 -22z"/>
<path d="M3939 5983 c-13 -16 -12 -17 4 -4 16 13 21 21 13 21 -2 0 -10 -8 -17
-17z"/>
<path d="M5664 5638 l-19 -23 23 19 c21 18 27 26 19 26 -2 0 -12 -10 -23 -22z"/>
<path d="M4669 5583 c-13 -16 -12 -17 4 -4 16 13 21 21 13 21 -2 0 -10 -8 -17
-17z"/>
<path d="M3874 5088 l-29 -33 33 29 c30 28 37 36 29 36 -2 0 -16 -15 -33 -32z"/>
<path d="M5679 4963 l-24 -28 28 24 c15 14 27 26 27 28 0 8 -8 1 -31 -24z"/>
<path d="M5229 4913 c-13 -16 -12 -17 4 -4 9 7 17 15 17 17 0 8 -8 3 -21 -13z"/>
<path d="M5659 4863 c-13 -16 -12 -17 4 -4 16 13 21 21 13 21 -2 0 -10 -8 -17
-17z"/>
<path d="M6266 6834 c-14 -14 -16 -153 -16 -1379 0 -1226 2 -1365 16 -1379 23
-24 405 -24 428 0 14 14 16 153 16 1383 0 1050 -3 1370 -12 1379 -9 9 -70 12
-214 12 -171 0 -205 -2 -218 -16z m344 -1384 l0 -1300 -140 0 -140 0 0 1300 0
1300 140 0 140 0 0 -1300z"/>
<path d="M6529 6623 c-13 -16 -12 -17 4 -4 9 7 17 15 17 17 0 8 -8 3 -21 -13z"/>
<path d="M6469 6363 c-13 -16 -12 -17 4 -4 16 13 21 21 13 21 -2 0 -10 -8 -17
-17z"/>
<path d="M6449 6133 l-24 -28 28 24 c15 14 27 26 27 28 0 8 -8 1 -31 -24z"/>
<path d="M6369 6123 c-13 -16 -12 -17 4 -4 16 13 21 21 13 21 -2 0 -10 -8 -17
-17z"/>
<path d="M6424 6048 l-19 -23 23 19 c21 18 27 26 19 26 -2 0 -12 -10 -23 -22z"/>
<path d="M6509 5833 c-13 -16 -12 -17 4 -4 9 7 17 15 17 17 0 8 -8 3 -21 -13z"/>
<path d="M6459 5503 c-13 -16 -12 -17 4 -4 9 7 17 15 17 17 0 8 -8 3 -21 -13z"/>
<path d="M6389 5243 l-24 -28 28 24 c15 14 27 26 27 28 0 8 -8 1 -31 -24z"/>
<path d="M6379 5153 c-13 -16 -12 -17 4 -4 9 7 17 15 17 17 0 8 -8 3 -21 -13z"/>
<path d="M6364 5088 l-19 -23 23 19 c12 11 22 21 22 23 0 8 -8 2 -26 -19z"/>
<path d="M6394 4948 l-19 -23 23 19 c12 11 22 21 22 23 0 8 -8 2 -26 -19z"/>
<path d="M6444 4818 l-19 -23 23 19 c12 11 22 21 22 23 0 8 -8 2 -26 -19z"/>
<path d="M6429 4773 c-13 -16 -12 -17 4 -4 9 7 17 15 17 17 0 8 -8 3 -21 -13z"/>
<path d="M6534 4628 l-19 -23 23 19 c12 11 22 21 22 23 0 8 -8 2 -26 -19z"/>
<path d="M6379 4433 c-13 -16 -12 -17 4 -4 16 13 21 21 13 21 -2 0 -10 -8 -17
-17z"/>
</g>
</svg>
