<svg xmlns="http://www.w3.org/2000/svg"
shape-rendering="geometricPrecision"
width="4000" height="4000" viewBox="0 0 1024 1024">
  <metadata>null</metadata>

<path d="
M 51.016 371.778
C 52.259 372.333 51.615 372.402 50.665 373.631
C 49.492 377.009 50.255 381.451 50.276 384.996
C 50.317 392.086 49.801 399.406 50.414 406.467
C 49.657 412.614 50.075 418.811 50.137 425
C 50.24 435.33 50.429 445.663 50.41 455.995
C 50.403 459.911 50.472 463.83 50.418 467.745
C 50.403 468.876 49.955 471.17 50.989 471.881
C 49.88 472.512 50.273 474.345 50.157 475.487
C 49.784 479.18 50.062 482.837 50.119 486.532
C 50.313 499.277 52.482 511.772 57.366 523.616
C 58.735 526.936 60.389 530.985 62.763 533.722
C 65.383 539.539 70.878 544.95 75.657 549.018
C 87.633 559.212 102.593 565.201 117.939 568.147
C 130.839 570.624 143.587 571.769 156.699 572.334
C 164.574 572.674 172.428 572.752 180.314 572.743
C 215.343 572.705 257.785 569.644 281.351 539.875
C 285.406 535.676 288.44 529.961 290.793 524.671
C 296.054 512.85 298.104 499.878 298.4 487.039
C 298.52 481.831 298.76 476.701 298.191 471.513
C 297.498 462.776 298.103 453.774 298.236 445.007
C 298.428 432.338 298.359 419.667 298.356 406.997
C 298.354 398.168 298.322 389.338 298.346 380.509
C 298.351 378.558 297.214 372.787 299.499 372.111
C 299.958 372.149 300.774 371.988 301.176 372.21
C 301.445 372.358 300.932 374.175 300.948 374.488
C 301.076 376.98 301.166 379.466 301.141 381.992
C 301.036 392.819 301.106 403.67 301.263 414.497
C 301.479 429.329 301.245 444.163 301.411 458.995
C 301.52 468.667 301.344 478.298 300.883 487.948
C 300.243 501.373 298.667 514.325 293.028 526.717
C 290.409 532.471 286.878 537.708 282.916 542.614
C 270.904 557.486 252.382 566.542 234.044 570.803
C 216.088 574.976 197.876 575.672 179.505 575.753
C 139.999 575.927 92.96 575.234 65.407 542.269
C 54.601 529.341 49.178 512.253 47.754 495.651
C 47.107 488.118 47.449 480.556 47.328 473.006
C 47.03 454.354 47.084 435.662 47.129 417.006
C 47.155 406.607 46.969 396.209 46.94 385.811
C 46.932 382.921 47.016 380.036 47.041 377.152
C 47.056 375.503 46.765 373.636 47.23 372.045
C 48.496 371.956 49.744 371.783 51.016 371.778 Z"
opacity="1" fill="rgb(116,119,121)" fill-rule="evenodd" />
<path d="
M 50.989 471.881
C 51.611 471.787 51.302 471.813 51.918 471.8
C 51.065 472.693 51.167 474.056 51.205 475.212
C 51.295 477.905 51.348 480.595 51.357 483.289
C 51.401 495.395 53.012 508.621 57.369 519.972
C 58.576 523.117 60.207 526.193 61.702 529.21
C 62.365 530.547 63.381 532.211 62.763 533.722
C 60.389 530.985 58.735 526.936 57.366 523.616
C 52.482 511.772 50.313 499.277 50.119 486.532
C 50.062 482.837 49.784 479.18 50.157 475.487
C 50.273 474.345 49.88 472.512 50.989 471.881 Z"
opacity="0.996" fill="rgb(171,163,167)" fill-rule="evenodd" />
<path d="
M 51.016 371.778
C 52.84 371.802 54.639 371.907 56.455 372.028
C 55.392 373.451 56.907 373.548 58.053 373.478
C 60.492 373.33 62.775 373.185 65.232 373.282
C 69.688 373.457 73.802 372.492 78.198 372.355
C 79.899 372.302 81.471 373.677 82.45 371.993
C 84.74 371.808 87.27 371.434 89.523 372.052
C 89.218 372.986 89.359 372.564 89.102 373.319
C 88.984 375.207 89.322 377.11 89.309 379.004
C 89.277 384.173 89.143 389.332 89.221 394.503
C 88.502 394.859 87.909 393.358 87.961 392.847
C 88.017 392.307 88.572 392.108 88.627 391.479
C 88.962 387.616 88.221 384.195 87.866 380.431
C 87.717 378.857 88.314 376.956 87.865 375.454
C 87.216 375.07 85.79 375.307 85.006 375.288
C 82.504 375.228 80.005 375.197 77.502 375.203
C 68.953 375.221 60.364 375.465 51.822 375.358
C 51.379 377.611 51.714 380.181 51.653 382.481
C 51.519 387.511 51.332 392.54 51.187 397.572
C 51.118 399.964 51.82 404.459 50.414 406.467
C 49.801 399.406 50.317 392.086 50.276 384.996
C 50.255 381.451 49.492 377.009 50.665 373.631
C 51.615 372.402 52.259 372.333 51.016 371.778 Z"
opacity="0.996" fill="rgb(214,208,215)" fill-rule="evenodd" />
<path d="
M 50.414 406.467
C 51.82 404.459 51.118 399.964 51.187 397.572
C 51.332 392.54 51.519 387.511 51.653 382.481
C 51.714 380.181 51.379 377.611 51.822 375.358
C 60.364 375.465 68.953 375.221 77.502 375.203
C 80.005 375.197 82.504 375.228 85.006 375.288
C 85.79 375.307 87.216 375.07 87.865 375.454
C 88.314 376.956 87.717 378.857 87.866 380.431
C 88.221 384.195 88.962 387.616 88.627 391.479
C 88.572 392.108 88.017 392.307 87.961 392.847
C 87.909 393.358 88.502 394.859 89.221 394.503
C 89.472 413.999 89.062 433.489 88.939 453.013
C 88.908 457.847 88.965 462.671 88.924 467.501
C 88.918 468.254 89.285 471.467 88.572 471.793
C 84.712 471.254 80.416 471.709 76.507 471.693
C 68.31 471.661 60.113 471.7 51.918 471.8
C 51.302 471.813 51.611 471.787 50.989 471.881
C 49.955 471.17 50.403 468.876 50.418 467.745
C 50.472 463.83 50.403 459.911 50.41 455.995
C 50.429 445.663 50.24 435.33 50.137 425
C 50.075 418.811 49.657 412.614 50.414 406.467 Z"
opacity="1" fill="rgb(210,211,213)" fill-rule="evenodd" />
<path d="
M 51.918 471.8
C 60.113 471.7 68.31 471.661 76.507 471.693
C 80.416 471.709 84.712 471.254 88.572 471.793
C 87.938 473.343 88.196 475.33 88.196 476.992
C 88.195 480.147 88.028 483.299 88.125 486.455
C 88.402 495.424 89.71 504.507 93.91 512.57
C 97.837 520.108 105.369 525.982 113.048 529.344
C 129.419 536.47 148.115 537.088 165.669 537.243
C 182.058 537.388 198.758 537.369 214.984 534.9
C 227.396 533.011 241.198 529.895 249.84 520.001
C 256.253 512.657 259.623 502.835 260.293 493.187
C 260.764 486.417 260.044 479.574 260.449 472.834
C 260.367 472.154 260.976 472.07 261.491 471.841
C 270.27 471.906 279.061 471.655 287.845 471.715
C 289.947 471.73 292.048 471.719 294.15 471.744
C 295.276 471.757 296.416 471.589 297.222 472.432
C 296.527 476.185 297.402 480.396 297.269 484.211
C 296.981 492.512 296.15 501.266 293.977 509.311
C 292.296 515.532 290.133 521.571 287.229 527.325
C 285.345 531.057 282.454 534.707 280.901 538.511
C 280.624 539.19 281.414 539.352 281.351 539.875
C 257.785 569.644 215.343 572.705 180.314 572.743
C 172.428 572.752 164.574 572.674 156.699 572.334
C 143.587 571.769 130.839 570.624 117.939 568.147
C 102.593 565.201 87.633 559.212 75.657 549.018
C 70.878 544.95 65.383 539.539 62.763 533.722
C 63.381 532.211 62.365 530.547 61.702 529.21
C 60.207 526.193 58.576 523.117 57.369 519.972
C 53.012 508.621 51.401 495.395 51.357 483.289
C 51.348 480.595 51.295 477.905 51.205 475.212
C 51.167 474.056 51.065 472.693 51.918 471.8 Z"
opacity="1" fill="rgb(141,143,146)" fill-rule="evenodd" />
<path d="
M 56.455 372.028
C 60.997 371.601 65.613 372.313 70.164 372.238
C 74.269 372.171 78.32 371.405 82.45 371.993
C 81.471 373.677 79.899 372.302 78.198 372.355
C 73.802 372.492 69.688 373.457 65.232 373.282
C 62.775 373.185 60.492 373.33 58.053 373.478
C 56.907 373.548 55.392 373.451 56.455 372.028 Z"
opacity="1" fill="rgb(116,119,121)" fill-rule="evenodd" />
<path d="
M 88.572 471.793
C 89.285 471.467 88.918 468.254 88.924 467.501
C 88.965 462.671 88.908 457.847 88.939 453.013
C 89.062 433.489 89.472 413.999 89.221 394.503
C 89.143 389.332 89.277 384.173 89.309 379.004
C 89.322 377.11 88.984 375.207 89.102 373.319
C 89.53 372.95 89.772 372.59 90.016 372.082
C 90.411 372.107 91.367 371.964 91.681 372.166
C 91.893 372.301 91.719 373.86 91.722 374.077
C 91.739 375.713 91.752 377.349 91.755 378.986
C 91.769 386.319 91.761 393.652 91.81 400.985
C 91.94 420.323 92.095 439.655 92.166 458.996
C 92.211 471.324 91.604 483.729 92.933 496.002
C 92.341 496.718 91.575 497.432 91.237 498.321
C 90.904 499.197 91.379 500.236 91.574 501.086
C 91.997 502.921 92.391 504.479 93.213 506.189
C 96.095 512.186 98.936 518.073 104.575 522.075
C 106.36 523.342 108.232 524.746 110.17 525.767
C 111.051 526.23 112.758 526.629 113.27 527.564
C 113.535 528.049 112.997 528.803 113.048 529.344
C 105.369 525.982 97.837 520.108 93.91 512.57
C 89.71 504.507 88.402 495.424 88.125 486.455
C 88.028 483.299 88.195 480.147 88.196 476.992
C 88.196 475.33 87.938 473.343 88.572 471.793 Z"
opacity="1" fill="rgb(141,145,146)" fill-rule="evenodd" />
<path d="
M 89.523 372.052
C 89.688 372.062 89.852 372.072 90.016 372.082
C 89.772 372.59 89.53 372.95 89.102 373.319
C 89.359 372.564 89.218 372.986 89.523 372.052 Z"
opacity="1" fill="rgb(116,119,121)" fill-rule="evenodd" />
<path d="
M 92.933 496.002
C 93.429 499.887 94.414 504.121 95.988 507.711
C 101.296 519.824 112.323 525.785 124.598 528.747
C 138.764 532.166 153.176 532.596 167.683 532.533
C 172.986 532.51 178.289 532.63 183.591 532.553
C 190.778 532.449 197.954 532.067 205.13 531.773
C 211.287 531.52 217.024 530.322 222.996 528.908
C 231.087 526.992 239.284 524.301 245.448 518.449
C 257.912 506.618 257.068 486.757 256.582 471.005
C 256.305 462.018 256.59 452.989 256.59 443.997
C 256.59 428.33 256.433 412.675 256.303 397.006
C 256.235 388.78 256.705 380.443 256.121 372.235
C 256.546 371.641 257.886 371.858 258.59 371.84
C 261.067 371.776 263.529 372.116 266.005 372.121
C 272.215 372.133 278.429 372.218 284.638 372.143
C 288.574 372.096 292.488 371.495 296.436 371.97
C 296.156 372.4 296.097 373.594 295.642 373.817
C 295.476 373.898 294.698 373.192 294.29 373.2
C 291.825 373.245 289.355 373.232 286.888 373.218
C 282.589 373.194 278.296 373.472 273.997 373.376
C 271.944 373.331 269.874 373.035 267.821 373.156
C 266.892 373.211 265.85 373.766 265.016 373.771
C 264.433 373.774 264.183 373.296 263.536 373.422
C 262.717 373.581 262.268 374.291 261.466 374.498
C 260.788 374.453 260.196 374.227 259.708 374.76
C 259.178 376.021 259.383 377.652 259.345 379.002
C 259.261 381.998 259.294 385.005 259.301 388.002
C 259.324 397.668 259.15 407.332 259.145 416.996
C 259.134 428.257 259.601 439.509 259.702 450.759
C 259.765 457.725 259.429 464.749 259.669 471.704
C 260.287 471.75 260.865 471.848 261.491 471.841
C 260.976 472.07 260.367 472.154 260.449 472.834
C 260.044 479.574 260.764 486.417 260.293 493.187
C 259.623 502.835 256.253 512.657 249.84 520.001
C 241.198 529.895 227.396 533.011 214.984 534.9
C 198.758 537.369 182.058 537.388 165.669 537.243
C 148.115 537.088 129.419 536.47 113.048 529.344
C 112.997 528.803 113.535 528.049 113.27 527.564
C 112.758 526.629 111.051 526.23 110.17 525.767
C 108.232 524.746 106.36 523.342 104.575 522.075
C 98.936 518.073 96.095 512.186 93.213 506.189
C 92.391 504.479 91.997 502.921 91.574 501.086
C 91.379 500.236 90.904 499.197 91.237 498.321
C 91.575 497.432 92.341 496.718 92.933 496.002 Z"
opacity="1" fill="rgb(174,176,178)" fill-rule="evenodd" />
<path d="
M 261.466 374.498
C 261.798 375.01 261.977 374.991 262.489 375.212
C 261.759 375.249 261.193 375.369 260.545 375.716
C 259.649 385.065 260.73 394.59 260.214 403.976
C 260.044 407.082 259.275 410.449 259.637 413.542
C 259.745 414.466 260.758 415.266 260.793 415.922
C 260.827 416.544 259.578 417.588 259.145 416.996
C 259.15 407.332 259.324 397.668 259.301 388.002
C 259.294 385.005 259.261 381.998 259.345 379.002
C 259.383 377.652 259.178 376.021 259.708 374.76
C 260.196 374.227 260.788 374.453 261.466 374.498 Z"
opacity="0.992" fill="rgb(219,212,218)" fill-rule="evenodd" />
<path d="
M 259.145 416.996
C 259.578 417.588 260.827 416.544 260.793 415.922
C 260.758 415.266 259.745 414.466 259.637 413.542
C 259.275 410.449 260.044 407.082 260.214 403.976
C 260.73 394.59 259.649 385.065 260.545 375.716
C 261.193 375.369 261.759 375.249 262.489 375.212
C 273.931 375.148 285.269 375 296.703 375.158
C 297.495 377.028 297.116 379.975 297.135 382.007
C 297.186 387.335 296.973 392.663 296.844 397.988
C 296.763 401.332 295.951 404.425 298.356 406.997
C 298.359 419.667 298.428 432.338 298.236 445.007
C 298.103 453.774 297.498 462.776 298.191 471.513
C 297.708 471.848 297.583 471.886 297.222 472.432
C 296.416 471.589 295.276 471.757 294.15 471.744
C 292.048 471.719 289.947 471.73 287.845 471.715
C 279.061 471.655 270.27 471.906 261.491 471.841
C 260.865 471.848 260.287 471.75 259.669 471.704
C 259.429 464.749 259.765 457.725 259.702 450.759
C 259.601 439.509 259.134 428.257 259.145 416.996 Z"
opacity="1" fill="rgb(209,210,213)" fill-rule="evenodd" />
<path d="
M 261.466 374.498
C 262.268 374.291 262.717 373.581 263.536 373.422
C 264.183 373.296 264.433 373.774 265.016 373.771
C 265.85 373.766 266.892 373.211 267.821 373.156
C 269.874 373.035 271.944 373.331 273.997 373.376
C 278.296 373.472 282.589 373.194 286.888 373.218
C 289.355 373.232 291.825 373.245 294.29 373.2
C 294.698 373.192 295.476 373.898 295.642 373.817
C 296.097 373.594 296.156 372.4 296.436 371.97
C 297.35 371.913 298.689 371.523 299.499 372.111
C 297.214 372.787 298.351 378.558 298.346 380.509
C 298.322 389.338 298.354 398.168 298.356 406.997
C 295.951 404.425 296.763 401.332 296.844 397.988
C 296.973 392.663 297.186 387.335 297.135 382.007
C 297.116 379.975 297.495 377.028 296.703 375.158
C 285.269 375 273.931 375.148 262.489 375.212
C 261.977 374.991 261.798 375.01 261.466 374.498 Z"
opacity="0.996" fill="rgb(222,215,220)" fill-rule="evenodd" />
<path d="
M 297.222 472.432
C 297.583 471.886 297.708 471.848 298.191 471.513
C 298.76 476.701 298.52 481.831 298.4 487.039
C 298.104 499.878 296.054 512.85 290.793 524.671
C 288.44 529.961 285.406 535.676 281.351 539.875
C 281.414 539.352 280.624 539.19 280.901 538.511
C 282.454 534.707 285.345 531.057 287.229 527.325
C 290.133 521.571 292.296 515.532 293.977 509.311
C 296.15 501.266 296.981 492.512 297.269 484.211
C 297.402 480.396 296.527 476.185 297.222 472.432 Z"
opacity="1" fill="rgb(163,162,164)" fill-rule="evenodd" />
<path d="
M 366.798 374.549
C 367.521 375.629 367.22 376.197 366.211 376.859
C 362.636 379.205 359.854 381.563 356.907 384.696
C 351.44 390.509 348.054 399.178 346.653 406.929
C 344.318 417.678 345.183 428.957 345.33 439.928
C 345.427 447.146 345.638 454.361 345.726 461.579
C 345.768 464.987 345.432 468.49 345.684 471.88
C 345.066 474.416 345.4 477.389 345.405 479.987
C 345.416 484.823 345.336 489.655 345.306 494.491
C 345.255 502.495 344.872 510.614 345.299 518.607
C 345.41 520.68 346.525 522.246 346.577 524.32
C 346.745 530.971 346.084 537.901 346.817 544.502
C 346.843 550.002 346.842 555.501 346.891 561.001
C 346.915 563.706 346.582 566.694 347.059 569.353
C 355.251 568.817 363.638 569.451 371.85 569.471
C 374.87 569.479 377.877 569.501 380.896 569.478
C 381.901 569.47 383.758 570.109 383.527 569.122
C 383.245 567.701 384.341 567.073 384.745 565.847
C 385.257 562.251 384.776 558.444 384.819 554.818
C 384.84 553.159 384.847 551.5 384.847 549.841
C 384.76 530.24 384.47 510.603 384.818 491.003
C 384.91 485.845 384.897 480.661 384.719 475.506
C 384.67 474.066 384.81 470.593 383.859 469.503
C 383.578 456.058 383.58 442.553 383.867 429.107
C 383.938 425.759 384.034 422.428 384.151 419.084
C 384.22 417.115 384.218 414.874 385.272 413.146
C 387.317 412.955 388.925 415.101 390.265 416.438
C 393.886 420.052 397.52 423.652 401.139 427.269
C 411.221 437.347 421.326 447.412 431.332 457.565
C 435.71 462.008 439.73 466.93 444.462 471.006
C 447.257 475.115 451.016 478.657 454.495 482.189
C 459.367 487.136 464.247 492.074 469.151 496.986
C 475.037 502.882 480.614 509.09 486.424 515.059
C 488.801 517.5 490.71 520.447 493.35 522.627
C 495.079 524.883 497.213 526.931 499.148 529.016
C 505.754 536.138 512.618 543.026 519.34 550.045
C 526.421 557.439 533.586 565.997 543.383 569.778
C 547.26 571.274 551.55 571.513 555.654 571.176
C 558.858 570.913 562.138 570.316 565.121 569.084
C 569.709 567.189 574.02 564.681 577.513 561.096
C 586.623 551.748 590.28 537.26 589.85 524.503
C 591.216 511.7 590.409 498.379 590.406 485.507
C 590.405 482.008 590.484 478.502 590.325 475.005
C 590.27 473.777 590.473 472.071 589.774 471.014
C 589.041 454.788 589.975 438.442 589.899 422.203
C 589.878 417.813 590.181 413.367 589.839 408.99
C 590.254 400.159 590.158 391.325 590.317 382.48
C 590.355 380.323 590.481 378.15 590.341 375.995
C 590.252 374.611 589.908 373.096 590.511 371.797
C 591.07 371.804 592.453 371.59 592.769 372.036
C 592.573 399.681 592.947 427.349 593.143 454.993
C 593.28 474.328 593.244 493.662 593.213 512.997
C 593.181 532.917 591.783 556.628 573.053 568.464
C 570.022 570.38 566.729 571.833 563.301 572.869
C 559.151 574.123 554.899 574.631 550.569 574.258
C 545.732 573.84 540.859 572.349 536.654 569.913
C 529.676 565.871 524.379 559.427 518.918 553.612
C 511.306 545.505 503.536 537.543 495.995 529.373
C 486.917 519.539 477.255 510.253 467.994 500.593
C 454.413 486.429 440.96 472.102 427.107 458.191
C 417.029 448.072 406.802 438.014 397.087 427.55
C 394.663 424.94 392.053 422.467 389.777 419.722
C 389.48 419.364 387.956 417.196 387.471 417.297
C 386.566 417.485 387.106 418.949 387.077 419.494
C 386.962 421.682 387.075 423.821 387.085 426.01
C 387.128 435.339 387.1 444.667 387.182 453.996
C 387.532 493.767 386.641 533.555 386.828 573.321
C 372.105 572.668 357.205 573.358 342.468 573.406
C 341.986 572.323 342.258 570.687 342.241 569.505
C 342.197 566.34 342.205 563.175 342.168 560.01
C 342.039 549.004 342.044 537.997 342.087 526.99
C 342.175 504.327 342.389 481.665 342.297 459.001
C 342.236 443.759 341.289 428.155 342.912 412.989
C 344.155 401.366 348.465 390.439 356.661 382
C 359.489 379.089 362.946 376.019 366.798 374.549 Z"
opacity="1" fill="rgb(117,120,122)" fill-rule="evenodd" />
<path d="
M 346.653 406.929
C 348.444 407.413 349.004 403.036 349.482 401.628
C 351.631 395.293 354.412 389.028 359.287 384.295
C 371.662 372.281 390.41 373.524 404.492 381.527
C 414.231 388.746 422.732 397.091 431.114 405.84
C 433.888 408.735 436.621 411.668 439.412 414.547
C 440.465 415.634 441.483 416.78 442.821 417.528
C 443.064 417.664 444.878 418.336 444.478 417.529
C 448.979 420.838 452.755 425.903 456.597 429.949
C 464.842 438.632 472.995 447.398 481.236 456.077
C 484.75 459.777 488.246 463.431 491.971 466.923
C 493.387 468.25 494.522 469.825 496.047 470.969
C 495.696 471.464 495.586 471.531 494.981 471.442
C 488.742 470.811 482.274 471.233 476.006 471.222
C 466.078 471.205 456.162 470.994 446.255 471.302
C 445.705 471.512 444.994 471.238 444.462 471.006
C 439.73 466.93 435.71 462.008 431.332 457.565
C 421.326 447.412 411.221 437.347 401.139 427.269
C 397.52 423.652 393.886 420.052 390.265 416.438
C 388.925 415.101 387.317 412.955 385.272 413.146
C 384.218 414.874 384.22 417.115 384.151 419.084
C 384.034 422.428 383.938 425.759 383.867 429.107
C 383.58 442.553 383.578 456.058 383.859 469.503
C 383.249 470.233 381.892 469.715 381.006 469.72
C 378.682 469.734 376.349 469.762 374.029 469.907
C 368.697 470.24 363.375 470.923 358.058 471.196
C 353.911 471.409 349.76 470.881 345.684 471.88
C 345.432 468.49 345.768 464.987 345.726 461.579
C 345.638 454.361 345.427 447.146 345.33 439.928
C 345.183 428.957 344.318 417.678 346.653 406.929 Z"
opacity="1" fill="rgb(216,217,220)" fill-rule="evenodd" />
<path d="
M 345.684 471.88
C 349.76 470.881 353.911 471.409 358.058 471.196
C 363.375 470.923 368.697 470.24 374.029 469.907
C 376.349 469.762 378.682 469.734 381.006 469.72
C 381.892 469.715 383.249 470.233 383.859 469.503
C 384.81 470.593 384.67 474.066 384.719 475.506
C 384.897 480.661 384.91 485.845 384.818 491.003
C 384.47 510.603 384.76 530.24 384.847 549.841
C 384.847 551.5 384.84 553.159 384.819 554.818
C 384.776 558.444 385.257 562.251 384.745 565.847
C 384.341 567.073 383.245 567.701 383.527 569.122
C 382.478 568.015 383.228 564.482 383.215 563
C 383.159 556.866 382.904 550.744 382.907 544.609
C 382.916 528.079 383.137 511.546 383.153 495.004
C 383.16 487.237 382.22 479.197 382.926 471.467
C 382.282 471.03 381.263 471.226 380.497 471.252
C 378.4 471.324 376.298 471.36 374.2 471.371
C 369.134 471.395 364.128 471.926 359.08 472.235
C 355.161 472.475 351.222 472.215 347.336 472.815
C 346.369 474.668 346.842 477.462 346.827 479.513
C 346.793 484.176 346.751 488.839 346.743 493.502
C 346.714 510.505 346.714 527.5 346.817 544.502
C 346.084 537.901 346.745 530.971 346.577 524.32
C 346.525 522.246 345.41 520.68 345.299 518.607
C 344.872 510.614 345.255 502.495 345.306 494.491
C 345.336 489.655 345.416 484.823 345.405 479.987
C 345.4 477.389 345.066 474.416 345.684 471.88 Z"
opacity="0.996" fill="rgb(128,147,165)" fill-rule="evenodd" />
<path d="
M 366.798 374.549
C 369.5 372.301 374.211 371.548 377.565 370.965
C 391.827 368.488 404.835 375.321 415.412 384.296
C 424.87 392.322 433.067 402.047 441.756 410.882
C 459.068 428.487 476.496 446.023 493.519 463.899
C 499.948 470.65 505.802 477.92 512.503 484.413
C 521.834 493.453 530.687 503.045 539.652 512.449
C 541.831 514.734 543.946 517.077 546.137 519.351
C 546.56 519.79 547.658 521.654 548.257 521.377
C 548.816 517.521 547.821 513.174 547.785 509.268
C 547.697 499.68 547.732 490.09 547.625 480.502
C 547.349 455.843 547.973 431.164 547.792 406.5
C 547.728 397.667 547.698 388.836 547.776 380.002
C 547.797 377.726 547.09 374.019 547.874 371.892
C 548.089 371.308 549.008 371.653 549.474 371.65
C 550.477 372.713 550.428 374.457 550.508 375.844
C 550.685 378.91 550.746 381.99 550.794 385.061
C 550.907 392.368 550.973 399.688 550.891 406.995
C 550.838 411.639 550.47 416.342 550.839 420.977
C 550.348 433.77 551.065 446.687 551.185 459.494
C 551.211 462.327 551.218 465.16 551.233 467.994
C 551.236 468.641 550.97 470.712 551.496 471.196
C 551.721 471.404 552.67 471.345 552.966 471.379
C 552.009 471.816 552.321 473.787 552.333 474.672
C 552.375 477.946 552.306 481.221 552.29 484.496
C 552.255 491.817 552.174 499.176 552.411 506.494
C 552.616 512.851 553.216 519.625 552.161 525.931
C 551.639 524.377 550.854 525.504 550.075 525.372
C 537.701 513.781 526.195 501.081 514.304 488.869
C 510.32 484.777 506.458 480.575 502.391 476.549
C 500.455 474.633 498.54 472.142 496.047 470.969
C 494.522 469.825 493.387 468.25 491.971 466.923
C 488.246 463.431 484.75 459.777 481.236 456.077
C 472.995 447.398 464.842 438.632 456.597 429.949
C 452.755 425.903 448.979 420.838 444.478 417.529
C 441.515 415.057 439.076 411.953 436.389 409.196
C 430.112 402.752 423.981 396.179 417.602 389.833
C 415.08 387.324 412.6 384.872 409.72 382.771
C 408.761 382.071 407.774 380.658 406.565 380.411
C 405.538 380.201 405.315 381.358 404.492 381.527
C 390.41 373.524 371.662 372.281 359.287 384.295
C 354.412 389.028 351.631 395.293 349.482 401.628
C 349.004 403.036 348.444 407.413 346.653 406.929
C 348.054 399.178 351.44 390.509 356.907 384.696
C 359.854 381.563 362.636 379.205 366.211 376.859
C 367.22 376.197 367.521 375.629 366.798 374.549 Z"
opacity="1" fill="rgb(168,168,171)" fill-rule="evenodd" />
<path d="
M 383.527 569.122
C 383.758 570.109 381.901 569.47 380.896 569.478
C 377.877 569.501 374.87 569.479 371.85 569.471
C 363.638 569.451 355.251 568.817 347.059 569.353
C 346.582 566.694 346.915 563.706 346.891 561.001
C 346.842 555.501 346.843 550.002 346.817 544.502
C 346.714 527.5 346.714 510.505 346.743 493.502
C 346.751 488.839 346.793 484.176 346.827 479.513
C 346.842 477.462 346.369 474.668 347.336 472.815
C 351.222 472.215 355.161 472.475 359.08 472.235
C 364.128 471.926 369.134 471.395 374.2 471.371
C 376.298 471.36 378.4 471.324 380.497 471.252
C 381.263 471.226 382.282 471.03 382.926 471.467
C 382.22 479.197 383.16 487.237 383.153 495.004
C 383.137 511.546 382.916 528.079 382.907 544.609
C 382.904 550.744 383.159 556.866 383.215 563
C 383.228 564.482 382.478 568.015 383.527 569.122 Z"
opacity="1" fill="rgb(9,54,125)" fill-rule="evenodd" />
<path d="
M 404.492 381.527
C 405.315 381.358 405.538 380.201 406.565 380.411
C 407.774 380.658 408.761 382.071 409.72 382.771
C 412.6 384.872 415.08 387.324 417.602 389.833
C 423.981 396.179 430.112 402.752 436.389 409.196
C 439.076 411.953 441.515 415.057 444.478 417.529
C 444.878 418.336 443.064 417.664 442.821 417.528
C 441.483 416.78 440.465 415.634 439.412 414.547
C 436.621 411.668 433.888 408.735 431.114 405.84
C 422.732 397.091 414.231 388.746 404.492 381.527 Z"
opacity="0.996" fill="rgb(229,222,225)" fill-rule="evenodd" />
<path d="
M 444.462 471.006
C 444.994 471.238 445.705 471.512 446.255 471.302
C 446.598 472.857 448.047 473.777 449.093 474.904
C 451.559 477.558 454.076 480.177 456.662 482.712
C 465.728 491.6 474.545 500.812 483.346 509.975
C 486.224 512.971 488.978 516.078 491.809 519.119
C 492.459 519.817 494.46 521.625 493.35 522.627
C 490.71 520.447 488.801 517.5 486.424 515.059
C 480.614 509.09 475.037 502.882 469.151 496.986
C 464.247 492.074 459.367 487.136 454.495 482.189
C 451.016 478.657 447.257 475.115 444.462 471.006 Z"
opacity="1" fill="rgb(179,181,175)" fill-rule="evenodd" />
<path d="
M 446.255 471.302
C 456.162 470.994 466.078 471.205 476.006 471.222
C 482.274 471.233 488.742 470.811 494.981 471.442
C 499.945 475.72 504.107 480.77 508.644 485.486
C 517.294 494.476 526.013 503.406 534.813 512.257
C 538.399 515.863 541.969 519.598 545.369 523.38
C 546.772 524.94 548.681 527.846 550.691 528.526
C 551.562 528.191 552.003 526.781 552.161 525.931
C 553.216 519.625 552.616 512.851 552.411 506.494
C 552.174 499.176 552.255 491.817 552.29 484.496
C 552.306 481.221 552.375 477.946 552.333 474.672
C 552.321 473.787 552.009 471.816 552.966 471.379
C 558.759 470.954 564.697 471.239 570.506 471.232
C 576.69 471.224 582.966 470.956 589.136 471.426
C 588.759 483.915 588.974 496.491 588.89 508.997
C 588.869 512.158 588.834 515.317 588.826 518.478
C 588.821 520.595 588.716 522.625 589.85 524.503
C 590.28 537.26 586.623 551.748 577.513 561.096
C 574.02 564.681 569.709 567.189 565.121 569.084
C 562.138 570.316 558.858 570.913 555.654 571.176
C 551.55 571.513 547.26 571.274 543.383 569.778
C 533.586 565.997 526.421 557.439 519.34 550.045
C 512.618 543.026 505.754 536.138 499.148 529.016
C 497.213 526.931 495.079 524.883 493.35 522.627
C 494.46 521.625 492.459 519.817 491.809 519.119
C 488.978 516.078 486.224 512.971 483.346 509.975
C 474.545 500.812 465.728 491.6 456.662 482.712
C 454.076 480.177 451.559 477.558 449.093 474.904
C 448.047 473.777 446.598 472.857 446.255 471.302 Z"
opacity="1" fill="rgb(128,129,134)" fill-rule="evenodd" />
<path d="
M 494.981 471.442
C 495.586 471.531 495.696 471.464 496.047 470.969
C 498.54 472.142 500.455 474.633 502.391 476.549
C 506.458 480.575 510.32 484.777 514.304 488.869
C 526.195 501.081 537.701 513.781 550.075 525.372
C 550.854 525.504 551.639 524.377 552.161 525.931
C 552.003 526.781 551.562 528.191 550.691 528.526
C 548.681 527.846 546.772 524.94 545.369 523.38
C 541.969 519.598 538.399 515.863 534.813 512.257
C 526.013 503.406 517.294 494.476 508.644 485.486
C 504.107 480.77 499.945 475.72 494.981 471.442 Z"
opacity="1" fill="rgb(191,193,190)" fill-rule="evenodd" />
<path d="
M 549.474 371.65
C 551.916 371.329 554.302 371.676 556.757 371.694
C 561.506 371.728 566.256 371.761 571.006 371.769
C 575.34 371.776 579.672 371.731 584.005 371.731
C 586.162 371.731 588.373 371.466 590.511 371.797
C 589.908 373.096 590.252 374.611 590.341 375.995
C 590.481 378.15 590.355 380.323 590.317 382.48
C 590.158 391.325 590.254 400.159 589.839 408.99
C 589.033 407.65 589.553 405.271 589.192 403.71
C 588.976 402.771 588.444 401.853 588.287 400.925
C 587.287 395.038 588.497 388.456 588.362 382.487
C 588.312 380.275 588.878 377.307 588.215 375.202
C 583.932 374.45 578.863 375.171 574.505 375.181
C 567.329 375.196 559.857 374.622 552.74 375.66
C 552.107 376.558 552.38 377.943 552.375 379.001
C 552.363 381.501 552.271 384 552.29 386.501
C 552.356 395.179 553.012 404.331 551.811 412.923
C 551.497 415.168 552.064 419.171 550.839 420.977
C 550.47 416.342 550.838 411.639 550.891 406.995
C 550.973 399.688 550.907 392.368 550.794 385.061
C 550.746 381.99 550.685 378.91 550.508 375.844
C 550.428 374.457 550.477 372.713 549.474 371.65 Z"
opacity="1" fill="rgb(209,212,213)" fill-rule="evenodd" />
<path d="
M 550.839 420.977
C 552.064 419.171 551.497 415.168 551.811 412.923
C 553.012 404.331 552.356 395.179 552.29 386.501
C 552.271 384 552.363 381.501 552.375 379.001
C 552.38 377.943 552.107 376.558 552.74 375.66
C 559.857 374.622 567.329 375.196 574.505 375.181
C 578.863 375.171 583.932 374.45 588.215 375.202
C 588.878 377.307 588.312 380.275 588.362 382.487
C 588.497 388.456 587.287 395.038 588.287 400.925
C 588.444 401.853 588.976 402.771 589.192 403.71
C 589.553 405.271 589.033 407.65 589.839 408.99
C 590.181 413.367 589.878 417.813 589.899 422.203
C 589.975 438.442 589.041 454.788 589.774 471.014
C 589.56 471.291 589.476 471.367 589.136 471.426
C 582.966 470.956 576.69 471.224 570.506 471.232
C 564.697 471.239 558.759 470.954 552.966 471.379
C 552.67 471.345 551.721 471.404 551.496 471.196
C 550.97 470.712 551.236 468.641 551.233 467.994
C 551.218 465.16 551.211 462.327 551.185 459.494
C 551.065 446.687 550.348 433.77 550.839 420.977 Z"
opacity="1" fill="rgb(210,211,214)" fill-rule="evenodd" />
<path d="
M 589.136 471.426
C 589.476 471.367 589.56 471.291 589.774 471.014
C 590.473 472.071 590.27 473.777 590.325 475.005
C 590.484 478.502 590.405 482.008 590.406 485.507
C 590.409 498.379 591.216 511.7 589.85 524.503
C 588.716 522.625 588.821 520.595 588.826 518.478
C 588.834 515.317 588.869 512.158 588.89 508.997
C 588.974 496.491 588.759 483.915 589.136 471.426 Z"
opacity="0.996" fill="rgb(171,167,166)" fill-rule="evenodd" />
<path d="
M 640.744 441.081
C 641.586 441.145 641.839 443.691 642.928 443.94
C 641.892 444.843 642.125 447.133 642.087 448.478
C 640.662 449.444 640.776 452.414 640.783 453.953
C 640.803 458.646 641.045 463.263 641.231 467.928
C 641.192 470.808 640.809 473.668 640.793 476.551
C 640.78 478.849 641.275 481.03 641.337 483.309
C 641.518 490.004 641.271 496.765 641.359 503.476
C 641.401 506.64 641.389 509.808 641.388 512.972
C 641.388 515.308 641.267 517.366 642.248 519.505
C 642.29 527.472 642.385 535.44 642.405 543.408
C 642.417 547.968 642.16 552.586 642.493 557.137
C 642.708 560.086 642.538 563.076 642.581 566.031
C 642.596 567.006 642.318 568.693 642.89 569.478
C 651.29 569.104 659.82 569.401 668.225 569.567
C 671.606 569.633 674.998 569.318 678.37 569.435
C 678.663 536.813 678.48 504.124 678.441 471.487
C 678.427 460.33 678.136 449.131 678.57 437.99
C 678.756 433.22 677.979 428.06 679.074 423.399
C 680.558 421.936 678.931 419.808 679.92 418.195
C 680.668 417.975 681.396 417.828 682.164 417.7
C 683.111 420.44 682.285 424.608 682.268 427.5
C 682.223 434.834 682.271 442.168 682.254 449.501
C 681.569 446.935 681.582 450.447 681.44 450.85
C 681.217 451.488 680.752 451.63 680.673 452.39
C 680.353 455.481 680.651 458.672 680.659 461.774
C 680.673 467.34 680.123 472.934 680.625 478.486
C 680.703 479.34 681.45 479.472 681.548 480.317
C 681.741 481.963 681.175 483.618 681.336 485.276
C 681.455 486.497 682.274 487.247 682.345 488.495
C 682.466 502.662 682.4 516.83 682.429 530.997
C 682.443 537.713 681.917 544.661 682.486 551.352
C 682.951 556.819 682.667 562.506 682.692 567.998
C 682.698 569.117 683.272 572.623 682.499 573.44
C 672.32 573.237 662.127 573.459 651.949 573.587
C 648.799 573.627 645.649 573.679 642.499 573.693
C 641.142 573.699 639.51 574.005 638.203 573.644
C 638.179 529.875 637.758 486.047 638.683 442.291
C 639.146 441.663 640.042 441.392 640.744 441.081 Z"
opacity="1" fill="rgb(122,130,133)" fill-rule="evenodd" />
<path d="
M 681.027 371.257
C 678.874 373.602 680.589 376.7 680.237 379.588
C 679.625 384.61 677.843 389.478 674.932 393.61
C 671.968 397.817 667.665 400.573 663.492 403.434
C 659.757 405.996 656.163 409.073 652.223 411.282
C 648.347 413.455 644.033 415.006 640.33 417.482
C 639.865 417.921 639.525 418.49 639.106 418.978
C 638.656 415.505 638.933 411.858 638.87 408.345
C 638.783 403.543 638.324 398.273 639.679 393.604
C 642.319 384.506 649.889 375.829 659.008 372.909
C 665.819 370.729 673.966 370.89 681.027 371.257 Z
M 642.99 409.123
C 642.871 410.649 642.787 412.224 642.987 413.744
C 643.583 414.043 645.271 412.483 645.791 412.176
C 648.736 410.439 651.801 408.824 654.628 406.895
C 664.671 400.042 675.556 393.91 677.495 380.791
C 677.76 379.002 678.218 377.017 678.11 375.211
C 675.702 374.462 672.285 375.125 669.792 375.272
C 666.009 375.496 661.986 375.73 658.447 377.212
C 652.308 379.782 647.518 385.47 645.2 391.568
C 643.013 397.324 644.091 403.246 642.99 409.123 Z"
opacity="1" fill="rgb(171,189,206)" fill-rule="evenodd" />
<path d="
M 639.106 418.978
C 639.525 418.49 639.865 417.921 640.33 417.482
C 644.033 415.006 648.347 413.455 652.223 411.282
C 656.163 409.073 659.757 405.996 663.492 403.434
C 667.665 400.573 671.968 397.817 674.932 393.61
C 677.843 389.478 679.625 384.61 680.237 379.588
C 680.589 376.7 678.874 373.602 681.027 371.257
C 681.146 371.263 681.993 371.285 682.099 371.37
C 682.354 371.574 682.239 372.326 682.238 372.609
C 682.233 374.011 682.259 375.452 682.092 376.847
C 681.424 382.404 680.849 387.806 678.142 392.835
C 672.566 403.196 660.102 408.754 650.466 414.587
C 647.874 416.157 645.377 417.888 642.825 419.523
C 641.552 420.338 640.27 421.488 638.834 421.964
C 638.501 421.051 638.891 419.901 639.106 418.978 Z"
opacity="0.996" fill="rgb(128,121,124)" fill-rule="evenodd" />
<path d="
M 679.92 418.195
C 678.931 419.808 680.558 421.936 679.074 423.399
C 676.18 422.86 671.832 426.627 669.133 428.066
C 662.447 431.629 655.987 435.706 649.526 439.658
C 647.306 441.016 645.238 442.751 642.928 443.94
C 641.839 443.691 641.586 441.145 640.744 441.081
C 649.509 434.727 659.216 428.94 668.827 423.958
C 672.491 422.06 675.96 419.458 679.92 418.195 Z"
opacity="1" fill="rgb(204,211,220)" fill-rule="evenodd" />
<path d="
M 642.087 448.478
C 642.878 454.505 642.277 460.927 642.262 466.997
C 642.065 467.646 641.921 467.731 641.231 467.928
C 641.045 463.263 640.803 458.646 640.783 453.953
C 640.776 452.414 640.662 449.444 642.087 448.478 Z"
opacity="0.996" fill="rgb(167,187,194)" fill-rule="evenodd" />
<path d="
M 641.231 467.928
C 641.921 467.731 642.065 467.646 642.262 466.997
C 642.253 484.498 642.12 502.004 642.248 519.505
C 641.267 517.366 641.388 515.308 641.388 512.972
C 641.389 509.808 641.401 506.64 641.359 503.476
C 641.271 496.765 641.518 490.004 641.337 483.309
C 641.275 481.03 640.78 478.849 640.793 476.551
C 640.809 473.668 641.192 470.808 641.231 467.928 Z"
opacity="1" fill="rgb(150,170,177)" fill-rule="evenodd" />
<path d="
M 642.928 443.94
C 645.238 442.751 647.306 441.016 649.526 439.658
C 655.987 435.706 662.447 431.629 669.133 428.066
C 671.832 426.627 676.18 422.86 679.074 423.399
C 677.979 428.06 678.756 433.22 678.57 437.99
C 678.136 449.131 678.427 460.33 678.441 471.487
C 678.48 504.124 678.663 536.813 678.37 569.435
C 674.998 569.318 671.606 569.633 668.225 569.567
C 659.82 569.401 651.29 569.104 642.89 569.478
C 642.318 568.693 642.596 567.006 642.581 566.031
C 642.538 563.076 642.708 560.086 642.493 557.137
C 642.16 552.586 642.417 547.968 642.405 543.408
C 642.385 535.44 642.29 527.472 642.248 519.505
C 642.12 502.004 642.253 484.498 642.262 466.997
C 642.277 460.927 642.878 454.505 642.087 448.478
C 642.125 447.133 641.892 444.843 642.928 443.94 Z"
opacity="1" fill="rgb(7,56,134)" fill-rule="evenodd" />
<path d="
M 642.99 409.123
C 644.091 403.246 643.013 397.324 645.2 391.568
C 647.518 385.47 652.308 379.782 658.447 377.212
C 661.986 375.73 666.009 375.496 669.792 375.272
C 672.285 375.125 675.702 374.462 678.11 375.211
C 678.218 377.017 677.76 379.002 677.495 380.791
C 675.556 393.91 664.671 400.042 654.628 406.895
C 651.801 408.824 648.736 410.439 645.791 412.176
C 645.271 412.483 643.583 414.043 642.987 413.744
C 642.787 412.224 642.871 410.649 642.99 409.123 Z"
opacity="1" fill="rgb(20,118,208)" fill-rule="evenodd" />
<path d="
M 682.254 449.501
C 682.196 462.494 682.247 475.502 682.345 488.495
C 682.274 487.247 681.455 486.497 681.336 485.276
C 681.175 483.618 681.741 481.963 681.548 480.317
C 681.45 479.472 680.703 479.34 680.625 478.486
C 680.123 472.934 680.673 467.34 680.659 461.774
C 680.651 458.672 680.353 455.481 680.673 452.39
C 680.752 451.63 681.217 451.488 681.44 450.85
C 681.582 450.447 681.569 446.935 682.254 449.501 Z"
opacity="1" fill="rgb(106,109,107)" fill-rule="evenodd" />
<path d="
M 747.802 381.66
C 747.677 382.472 748.844 383.524 748.604 384.137
C 748.147 385.311 747.231 384.444 746.398 384.905
C 744.758 385.813 743.132 387.212 741.694 388.415
C 736.757 392.543 731.801 398.459 729.193 404.348
C 727.752 407.569 725.008 411.395 725.33 415.076
C 725.891 415.422 726.557 415.378 727.013 415.855
C 724.936 415.305 724.751 420.008 724.595 421.441
C 722.868 420.782 722.491 422.809 722.342 423.976
C 721.878 427.614 721.842 431.468 722.068 435.112
C 722.876 448.13 726.834 460.153 735.694 470.01
C 738.002 472.579 740.563 474.655 743.348 476.656
C 746.022 478.577 748.332 480.529 751.489 481.507
C 752.321 481.765 752.826 482.923 753.669 483.319
C 756.328 484.565 759.194 485.586 761.822 487.001
C 762.446 487.337 763.317 488.57 762.495 489.019
C 756.734 488.102 750.701 484.316 745.85 481.239
C 738.396 476.51 731.694 470.648 727.291 462.888
C 712.136 436.181 719.493 396.711 747.802 381.66 Z"
opacity="1" fill="rgb(143,146,151)" fill-rule="evenodd" />
<path d="
M 762.495 489.019
C 763.317 488.57 762.446 487.337 761.822 487.001
C 759.194 485.586 756.328 484.565 753.669 483.319
C 752.826 482.923 752.321 481.765 751.489 481.507
C 748.332 480.529 746.022 478.577 743.348 476.656
C 740.563 474.655 738.002 472.579 735.694 470.01
C 726.834 460.153 722.876 448.13 722.068 435.112
C 721.842 431.468 721.878 427.614 722.342 423.976
C 722.491 422.809 722.868 420.782 724.595 421.441
C 723.718 428.421 723.558 435.936 724.687 442.898
C 725.532 448.108 727.252 452.948 729.562 457.673
C 731.371 461.372 733.744 465.188 736.51 468.255
C 758.383 492.507 793.794 489.719 823.507 489.806
C 830.839 489.827 838.171 489.766 845.503 489.753
C 855.836 489.736 866.169 489.738 876.501 489.726
C 880.503 489.721 884.504 489.746 888.505 489.759
C 891.448 489.769 894.391 489.762 897.334 489.786
C 910.188 489.893 926.571 489.044 934.35 501.456
C 935.357 503.063 936.324 504.759 936.898 506.577
C 937.7 509.115 937.883 511.962 937.784 514.608
C 937.696 516.958 937.178 519.208 936.277 521.378
C 929.719 537.179 910.576 535.733 896.498 535.894
C 893.166 535.932 889.832 535.926 886.5 535.92
C 858.832 535.871 831.164 535.802 803.496 535.802
C 795.339 535.802 787.181 535.894 779.025 535.876
C 772.003 535.862 764.904 535.62 757.905 536.297
C 744.275 537.616 730.637 545.245 726.582 559.032
C 725.597 562.38 725.578 565.811 725.654 569.266
C 730.072 569.608 734.577 569.374 739.006 569.381
C 747.84 569.396 756.674 569.346 765.508 569.361
C 792.841 569.408 820.174 569.34 847.507 569.396
C 862.173 569.427 876.84 569.387 891.507 569.389
C 905.046 569.391 918.377 569.628 931.59 566.234
C 937.005 564.844 942.302 562.583 947.081 559.692
C 954.205 555.382 960.535 549.715 965.005 542.637
C 974.532 527.55 975.093 507.585 969.181 491.134
C 969.165 490.256 969.665 489.717 970.193 489.058
C 970.784 488.119 970.835 486.901 971.428 486.037
C 981.347 508.544 979.289 537.139 960.695 554.768
C 952.602 562.44 942.532 567.378 931.823 570.249
C 918.766 573.749 905.412 573.574 892.005 573.591
C 877.006 573.609 862.006 573.573 847.006 573.595
C 818.17 573.637 789.334 573.755 760.498 573.713
C 751.831 573.7 743.163 573.71 734.496 573.731
C 730.1 573.742 725.504 574.128 721.131 573.744
C 720.912 568.414 721.043 562.385 722.645 557.257
C 726.98 543.378 740.319 534.911 754.076 532.552
C 760.317 531.483 766.687 531.681 772.996 531.639
C 782.171 531.579 791.347 531.598 800.516 531.557
C 832.335 531.415 864.17 531.737 895.999 531.667
C 904.745 531.648 915.069 532.877 923.183 528.999
C 934.389 523.643 937.099 508.003 927.345 499.806
C 921.535 494.923 914.237 494.376 907.015 494.044
C 900.352 493.738 893.677 493.682 887.002 493.669
C 858.021 493.612 829.034 493.522 800.054 493.733
C 790.542 493.802 781.292 493.332 771.95 491.482
C 769.134 490.924 764.851 490.775 762.495 489.019 Z"
opacity="1" fill="rgb(126,135,145)" fill-rule="evenodd" />
<path d="
M 724.595 421.441
C 724.751 420.008 724.936 415.305 727.013 415.855
C 734.957 417.282 742.849 419.255 750.64 421.372
C 753.097 422.04 755.528 422.797 758.002 423.399
C 758.954 423.63 759.805 424.187 760.791 424.131
C 760.494 424.836 759.719 424.997 759.406 425.661
C 758.524 427.535 758.73 430.412 758.777 432.439
C 758.839 435.115 759.227 437.718 760.134 440.243
C 760.793 442.08 761.612 443.804 762.721 445.417
C 770.785 457.155 787.551 455.879 799.987 455.65
C 822.401 455.236 844.85 455.735 867.252 455.647
C 881.828 455.59 896.409 455.491 910.928 456.659
C 927.68 458.008 944.91 462.057 957.555 473.857
C 961.039 477.108 963.993 480.876 966.28 485.059
C 967.357 487.029 968.088 489.184 969.181 491.134
C 975.093 507.585 974.532 527.55 965.005 542.637
C 960.535 549.715 954.205 555.382 947.081 559.692
C 942.302 562.583 937.005 564.844 931.59 566.234
C 918.377 569.628 905.046 569.391 891.507 569.389
C 876.84 569.387 862.173 569.427 847.507 569.396
C 820.174 569.34 792.841 569.408 765.508 569.361
C 756.674 569.346 747.84 569.396 739.006 569.381
C 734.577 569.374 730.072 569.608 725.654 569.266
C 725.578 565.811 725.597 562.38 726.582 559.032
C 730.637 545.245 744.275 537.616 757.905 536.297
C 764.904 535.62 772.003 535.862 779.025 535.876
C 787.181 535.894 795.339 535.802 803.496 535.802
C 831.164 535.802 858.832 535.871 886.5 535.92
C 889.832 535.926 893.166 535.932 896.498 535.894
C 910.576 535.733 929.719 537.179 936.277 521.378
C 937.178 519.208 937.696 516.958 937.784 514.608
C 937.883 511.962 937.7 509.115 936.898 506.577
C 936.324 504.759 935.357 503.063 934.35 501.456
C 926.571 489.044 910.188 489.893 897.334 489.786
C 894.391 489.762 891.448 489.769 888.505 489.759
C 884.504 489.746 880.503 489.721 876.501 489.726
C 866.169 489.738 855.836 489.736 845.503 489.753
C 838.171 489.766 830.839 489.827 823.507 489.806
C 793.794 489.719 758.383 492.507 736.51 468.255
C 733.744 465.188 731.371 461.372 729.562 457.673
C 727.252 452.948 725.532 448.108 724.687 442.898
C 723.558 435.936 723.718 428.421 724.595 421.441 Z"
opacity="1" fill="rgb(8,61,140)" fill-rule="evenodd" />
<path d="
M 729.193 404.348
C 729.665 404.296 730.095 404.673 730.558 404.608
C 731.083 404.534 731.277 403.545 731.46 403.159
C 732.128 401.752 733.254 400.315 734.229 399.104
C 737.213 395.396 740.667 392.152 744.222 389.006
C 746.793 386.73 750.127 384.974 753.234 383.564
C 759.348 380.791 765.412 378.559 772.015 377.213
C 784.033 374.764 796.303 375.218 808.503 375.197
C 824.67 375.17 840.839 375.206 857.006 375.138
C 881.672 375.036 906.338 375.377 931.004 375.39
C 939.504 375.395 948.004 375.404 956.504 375.389
C 961.101 375.38 966.006 374.956 970.569 375.478
C 970.232 379.922 969.678 384.578 968.052 388.768
C 967.062 391.322 965.674 393.719 964.023 395.899
C 952.732 410.815 933.309 410.32 916.501 410.404
C 884.685 410.564 852.858 410.338 821.041 410.275
C 812.224 410.257 803.408 410.236 794.591 410.275
C 787.107 410.308 779.508 410.295 772.399 412.933
C 769.353 414.063 766.525 415.985 764.572 418.599
C 763.542 419.977 762.27 423.365 760.791 424.131
C 759.805 424.187 758.954 423.63 758.002 423.399
C 755.528 422.797 753.097 422.04 750.64 421.372
C 742.849 419.255 734.957 417.282 727.013 415.855
C 726.557 415.378 725.891 415.422 725.33 415.076
C 725.008 411.395 727.752 407.569 729.193 404.348 Z"
opacity="1" fill="rgb(192,194,199)" fill-rule="evenodd" />
<path d="
M 747.802 381.66
C 754.987 378.294 761.8 374.979 769.667 373.354
C 782.473 370.709 795.795 371.32 808.778 371.645
C 820.324 371.935 831.94 371.797 843.492 371.754
C 871.994 371.65 900.495 371.698 928.997 371.74
C 937.831 371.753 946.664 371.765 955.498 371.709
C 960.765 371.675 966.313 371.16 971.521 371.918
C 970.645 372.569 970.546 374.467 970.569 375.478
C 966.006 374.956 961.101 375.38 956.504 375.389
C 948.004 375.404 939.504 375.395 931.004 375.39
C 906.338 375.377 881.672 375.036 857.006 375.138
C 840.839 375.206 824.67 375.17 808.503 375.197
C 796.303 375.218 784.033 374.764 772.015 377.213
C 765.412 378.559 759.348 380.791 753.234 383.564
C 750.127 384.974 746.793 386.73 744.222 389.006
C 740.667 392.152 737.213 395.396 734.229 399.104
C 733.254 400.315 732.128 401.752 731.46 403.159
C 731.277 403.545 731.083 404.534 730.558 404.608
C 730.095 404.673 729.665 404.296 729.193 404.348
C 731.801 398.459 736.757 392.543 741.694 388.415
C 743.132 387.212 744.758 385.813 746.398 384.905
C 747.231 384.444 748.147 385.311 748.604 384.137
C 748.844 383.524 747.677 382.472 747.802 381.66 Z"
opacity="1" fill="rgb(207,209,213)" fill-rule="evenodd" />
<path d="
M 760.791 424.131
C 762.27 423.365 763.542 419.977 764.572 418.599
C 766.525 415.985 769.353 414.063 772.399 412.933
C 779.508 410.295 787.107 410.308 794.591 410.275
C 803.408 410.236 812.224 410.257 821.041 410.275
C 852.858 410.338 884.685 410.564 916.501 410.404
C 933.309 410.32 952.732 410.815 964.023 395.899
C 965.674 393.719 967.062 391.322 968.052 388.768
C 969.678 384.578 970.232 379.922 970.569 375.478
C 970.546 374.467 970.645 372.569 971.521 371.918
C 973.635 372.415 972.839 376.204 972.789 377.991
C 972.604 384.619 970.885 390.666 967.246 396.225
C 958.166 410.099 941.411 413.385 925.994 413.638
C 884.376 414.323 842.679 413.677 801.054 413.645
C 788.566 413.636 772.052 411.313 765.012 424.173
C 763.892 426.22 763.182 428.378 763.053 430.716
C 762.934 432.882 763.051 435.088 763.584 437.196
C 764.008 438.874 764.635 440.463 765.542 441.943
C 772.388 453.115 787.485 451.568 798.779 451.616
C 802.004 451.63 805.206 451.568 808.427 451.447
C 811.782 451.32 815.148 451.48 818.505 451.48
C 830.005 451.481 841.505 451.452 853.005 451.458
C 860.503 451.461 868.002 451.366 875.501 451.39
C 896.385 451.459 917.523 450.367 937.523 457.351
C 947.743 460.92 957.361 466.367 964.246 474.893
C 966.996 478.3 969.53 482.09 971.428 486.037
C 970.835 486.901 970.784 488.119 970.193 489.058
C 969.665 489.717 969.165 490.256 969.181 491.134
C 968.088 489.184 967.357 487.029 966.28 485.059
C 963.993 480.876 961.039 477.108 957.555 473.857
C 944.91 462.057 927.68 458.008 910.928 456.659
C 896.409 455.491 881.828 455.59 867.252 455.647
C 844.85 455.735 822.401 455.236 799.987 455.65
C 787.551 455.879 770.785 457.155 762.721 445.417
C 761.612 443.804 760.793 442.08 760.134 440.243
C 759.227 437.718 758.839 435.115 758.777 432.439
C 758.73 430.412 758.524 427.535 759.406 425.661
C 759.719 424.997 760.494 424.836 760.791 424.131 Z"
opacity="1" fill="rgb(155,161,167)" fill-rule="evenodd" />

</svg>